<svg width="64" height="24" viewBox="0 0 38.124 15.78" xmlns="http://www.w3.org/2000/svg"><g id="svgGroup" stroke-linecap="round" fill-rule="evenodd" font-size="9pt" stroke="#343E51" stroke-width="0.25mm" fill="#343E51" style="stroke:#343E51;stroke-width:0.25mm;fill:#343E51"><path d="M 6.639 10.313 L 11.226 0 L 13.277 0 L 13.277 15.619 L 11.14 15.619 L 11.14 3.921 L 11.247 4.608 L 7.401 13.449 L 5.876 13.449 L 2.03 4.823 L 2.138 3.921 L 2.138 15.619 L 0 15.619 L 0 0 L 2.052 0 L 6.639 10.313 Z M 35.933 15.619 L 35.933 8.862 A 3.665 3.665 0 0 0 35.867 8.145 Q 35.732 7.469 35.32 7.036 A 2.002 2.002 0 0 0 34.304 6.468 A 3.049 3.049 0 0 0 33.602 6.392 A 3.259 3.259 0 0 0 32.949 6.453 Q 32.335 6.578 31.942 6.961 Q 31.374 7.514 31.357 8.501 A 3.563 3.563 0 0 0 31.356 8.562 L 31.131 6.413 A 4.434 4.434 0 0 1 31.747 5.495 A 3.634 3.634 0 0 1 32.479 4.855 A 3.281 3.281 0 0 1 34.321 4.308 A 4.446 4.446 0 0 1 35.496 4.454 A 3.169 3.169 0 0 1 37.13 5.495 A 3.92 3.92 0 0 1 37.86 6.875 Q 38.037 7.451 38.096 8.145 A 8.45 8.45 0 0 1 38.124 8.852 L 38.124 15.619 L 35.933 15.619 Z M 19.121 4.469 L 19.121 11.247 Q 19.121 12.418 19.717 13.057 Q 20.313 13.696 21.398 13.696 A 3.267 3.267 0 0 0 22.051 13.635 Q 22.667 13.509 23.063 13.127 A 1.846 1.846 0 0 0 23.564 12.254 Q 23.654 11.916 23.654 11.505 L 23.805 13.836 A 3.185 3.185 0 0 1 22.783 15.151 A 3.809 3.809 0 0 1 22.687 15.222 A 2.907 2.907 0 0 1 21.472 15.723 A 3.948 3.948 0 0 1 20.786 15.78 A 4.612 4.612 0 0 1 19.616 15.64 A 3.212 3.212 0 0 1 17.934 14.593 A 3.921 3.921 0 0 1 17.189 13.189 Q 17.011 12.608 16.955 11.908 A 8.342 8.342 0 0 1 16.93 11.247 L 16.93 4.469 L 19.121 4.469 Z M 29.165 15.619 L 29.165 4.469 L 31.356 4.469 L 31.356 15.619 L 29.165 15.619 Z M 23.654 15.619 L 23.654 4.469 L 25.835 4.469 L 25.835 15.619 L 23.654 15.619 Z" vector-effect="non-scaling-stroke"/></g></svg>