<svg width="64" height="24" viewBox="0 0 41.59 17.215" xmlns="http://www.w3.org/2000/svg"><g id="svgGroup" stroke-linecap="round" fill-rule="evenodd" font-size="9pt" stroke="#ffffff" stroke-width="0.25mm" fill="#ffffff" style="stroke:#ffffff;stroke-width:0.25mm;fill:#ffffff"><path d="M 7.242 11.25 L 12.246 0 L 14.484 0 L 14.484 17.039 L 12.152 17.039 L 12.152 4.277 L 12.27 5.027 L 8.074 14.672 L 6.41 14.672 L 2.215 5.262 L 2.332 4.277 L 2.332 17.039 L 0 17.039 L 0 0 L 2.238 0 L 7.242 11.25 Z M 39.199 17.039 L 39.199 9.668 A 3.998 3.998 0 0 0 39.127 8.885 Q 39.034 8.419 38.82 8.058 A 2.138 2.138 0 0 0 38.531 7.676 A 2.183 2.183 0 0 0 37.422 7.056 A 3.326 3.326 0 0 0 36.656 6.973 A 3.555 3.555 0 0 0 35.945 7.04 Q 35.51 7.128 35.177 7.335 A 1.944 1.944 0 0 0 34.846 7.594 Q 34.207 8.215 34.207 9.34 L 33.961 6.996 A 4.837 4.837 0 0 1 34.633 5.994 A 3.964 3.964 0 0 1 35.432 5.297 Q 36.34 4.699 37.441 4.699 A 4.85 4.85 0 0 1 38.723 4.859 A 3.457 3.457 0 0 1 40.506 5.994 Q 41.406 7.07 41.559 8.886 A 9.218 9.218 0 0 1 41.59 9.656 L 41.59 17.039 L 39.199 17.039 Z M 20.859 4.875 L 20.859 12.27 Q 20.859 13.547 21.51 14.244 A 2.117 2.117 0 0 0 22.593 14.859 A 3.22 3.22 0 0 0 23.344 14.941 A 3.564 3.564 0 0 0 24.056 14.875 Q 24.496 14.785 24.834 14.574 A 1.97 1.97 0 0 0 25.16 14.32 A 2.014 2.014 0 0 0 25.706 13.368 Q 25.792 13.045 25.803 12.662 A 3.957 3.957 0 0 0 25.805 12.551 L 25.969 15.094 A 3.475 3.475 0 0 1 24.854 16.528 A 4.154 4.154 0 0 1 24.75 16.605 A 3.171 3.171 0 0 1 23.424 17.152 A 4.307 4.307 0 0 1 22.676 17.215 A 5.032 5.032 0 0 1 21.399 17.062 A 3.504 3.504 0 0 1 19.564 15.92 A 4.277 4.277 0 0 1 18.751 14.388 Q 18.469 13.466 18.469 12.27 L 18.469 4.875 L 20.859 4.875 Z M 31.816 17.039 L 31.816 4.875 L 34.207 4.875 L 34.207 17.039 L 31.816 17.039 Z M 25.805 17.039 L 25.805 4.875 L 28.184 4.875 L 28.184 17.039 L 25.805 17.039 Z" vector-effect="non-scaling-stroke"/></g></svg>